<?xml version="1.0" encoding="UTF-8" standalone="no"?>
<!-- Created with Inkscape (http://www.inkscape.org/) -->

<svg
   xmlns:dc="http://purl.org/dc/elements/1.1/"
   xmlns:cc="http://creativecommons.org/ns#"
   xmlns:rdf="http://www.w3.org/1999/02/22-rdf-syntax-ns#"
   xmlns:svg="http://www.w3.org/2000/svg"
   xmlns="http://www.w3.org/2000/svg"
   xmlns:sodipodi="http://sodipodi.sourceforge.net/DTD/sodipodi-0.dtd"
   xmlns:inkscape="http://www.inkscape.org/namespaces/inkscape"
   width="570"
   height="213"
   id="svg7699"
   version="1.1"
   inkscape:version="0.48.0 r9654"
   sodipodi:docname="Usgs_map_sinousidal_equal_area.svg">
  <defs
     id="defs7701" />
  <sodipodi:namedview
     id="base"
     pagecolor="#ffffff"
     bordercolor="#666666"
     borderopacity="1.0"
     inkscape:pageopacity="0.0"
     inkscape:pageshadow="2"
     inkscape:zoom="2.8"
     inkscape:cx="468.97165"
     inkscape:cy="113.5581"
     inkscape:document-units="px"
     inkscape:current-layer="layer1"
     showgrid="false"
     fit-margin-top="0"
     fit-margin-left="0"
     fit-margin-right="0"
     fit-margin-bottom="0"
     inkscape:window-width="1022"
     inkscape:window-height="584"
     inkscape:window-x="0"
     inkscape:window-y="14"
     inkscape:window-maximized="0" />
  <metadata
     id="metadata7704">
    <rdf:RDF>
      <cc:Work
         rdf:about="">
        <dc:format>image/svg+xml</dc:format>
        <dc:type
           rdf:resource="http://purl.org/dc/dcmitype/StillImage" />
      </cc:Work>
    </rdf:RDF>
  </metadata>
  <g
     inkscape:label="Layer 1"
     inkscape:groupmode="layer"
     id="layer1"
     transform="translate(-69.285721,-294.43362)">
    <path
       style="fill:#808080;stroke:#000000;stroke-width:1px;stroke-linecap:butt;stroke-linejoin:miter;stroke-opacity:1"
       d="m 118.57143,63.714286 c 118.45143,31.207564 122.20818,62.274594 0,92.142854 -126.1026275,-30.38494 -117.61776329,-61.083983 0,-92.142854 z"
       id="path7865"
       inkscape:connector-curvature="0"
       transform="translate(69.285721,294.43362)"
       sodipodi:nodetypes="ccc" />
    <path
       style="fill:none;stroke:#000000;stroke-width:1px;stroke-linecap:butt;stroke-linejoin:miter;stroke-opacity:1"
       d="m 118.18785,63.497423 c 98.2453,30.809652 105.99849,61.619307 0.25254,92.428957 C 3.5797876,124.36162 28.999862,93.719758 118.18785,63.497423 z"
       id="path7880"
       inkscape:connector-curvature="0"
       transform="translate(69.285721,294.43362)"
       sodipodi:nodetypes="ccc" />
    <path
       style="fill:none;stroke:#000000;stroke-width:1px;stroke-linecap:butt;stroke-linejoin:miter;stroke-opacity:1"
       d="m 187.48774,357.93105 c 79.17224,29.85601 84.69113,60.55394 0.25254,92.42896 -91.176949,-34.28256 -72.26643,-64.17742 -0.25254,-92.42896 z"
       id="path7880-4"
       inkscape:connector-curvature="0"
       sodipodi:nodetypes="ccc" />
    <path
       style="fill:none;stroke:#000000;stroke-width:1px;stroke-linecap:butt;stroke-linejoin:miter;stroke-opacity:1"
       d="m 187.2352,357.93104 c 53.56204,26.74755 69.36374,58.28888 0.25254,92.42896 -64.4491,-31.56476 -57.21388,-62.20662 -0.25254,-92.42896 z"
       id="path7880-7"
       inkscape:connector-curvature="0"
       sodipodi:nodetypes="ccc" />
    <path
       style="fill:none;stroke:#000000;stroke-width:1px;stroke-linecap:butt;stroke-linejoin:miter;stroke-opacity:1"
       d="m 74.751288,76.881944 89.903582,1.262691"
       id="path7918"
       inkscape:connector-curvature="0"
       transform="translate(69.285721,294.43362)" />
    <path
       style="fill:none;stroke:#000000;stroke-width:1px;stroke-linecap:butt;stroke-linejoin:miter;stroke-opacity:1"
       d="M 39.143411,94.307076 198.24244,94.812152"
       id="path7920"
       inkscape:connector-curvature="0"
       transform="translate(69.285721,294.43362)" />
    <path
       style="fill:none;stroke:#000000;stroke-width:1px;stroke-linecap:butt;stroke-linejoin:miter;stroke-opacity:1"
       d="m 27.021581,109.96444 181.827459,0"
       id="path7922"
       inkscape:connector-curvature="0"
       transform="translate(69.285721,294.43362)" />
    <path
       style="fill:none;stroke:#000000;stroke-width:1px;stroke-linecap:butt;stroke-linejoin:miter;stroke-opacity:1"
       d="M 38.638335,126.8845 197.73736,125.6218"
       id="path7924"
       inkscape:connector-curvature="0"
       transform="translate(69.285721,294.43362)" />
    <path
       style="fill:none;stroke:#000000;stroke-width:1px;stroke-linecap:butt;stroke-linejoin:miter;stroke-opacity:1"
       d="m 71.468293,142.03678 94.449267,-0.25253"
       id="path7926"
       inkscape:connector-curvature="0"
       transform="translate(69.285721,294.43362)" />
    <path
       style="fill:none;stroke:#000000;stroke-width:1.01116943px;stroke-linecap:butt;stroke-linejoin:miter;stroke-opacity:1"
       d="m 173.57838,372.07876 c -30.42519,33.8957 -12.57137,47.87202 -0.25622,64.13352"
       id="path7928"
       inkscape:connector-curvature="0"
       sodipodi:nodetypes="cc" />
    <path
       style="fill:none;stroke:#000000;stroke-width:1.0037272px;stroke-linecap:butt;stroke-linejoin:miter;stroke-opacity:1"
       d="m 181.09653,372.07503 c -14.05954,31.75993 -10.16713,47.57934 -0.25244,64.14097"
       id="path7928-4"
       inkscape:connector-curvature="0"
       sodipodi:nodetypes="cc" />
    <path
       style="fill:none;stroke:#000000;stroke-width:1px;stroke-linecap:butt;stroke-linejoin:miter;stroke-opacity:1"
       d="m 195.26221,372.32572 c 14.06525,31.51168 10.17126,47.20744 0.25254,63.63962"
       id="path7928-4-4"
       inkscape:connector-curvature="0"
       sodipodi:nodetypes="cc" />
    <path
       style="fill:none;stroke:#000000;stroke-width:1px;stroke-linecap:butt;stroke-linejoin:miter;stroke-opacity:1"
       d="m 202.1825,372.32571 c 29.98769,33.63467 12.3906,47.50335 0.25254,63.63962"
       id="path7928-3"
       inkscape:connector-curvature="0"
       sodipodi:nodetypes="cc" />
    <path
       style="fill:none;stroke:#000000;stroke-width:1px;stroke-linecap:butt;stroke-linejoin:miter;stroke-opacity:1"
       d="m 118.18785,63.497423 0,92.176417"
       id="path7984"
       inkscape:connector-curvature="0"
       transform="translate(69.285721,294.43362)" />
    <path
       style="fill:#000000;stroke:#000000;stroke-width:1px;stroke-linecap:butt;stroke-linejoin:miter;stroke-opacity:1"
       d="m 162.25575,27.38447 -43.05775,-0.252539 0,23.233509 2.77792,0 -4.04061,10.354064 -4.04061,-10.227795 2.52538,-0.126269 0.12627,-26.516504 45.83567,0.126269 z"
       id="path7986"
       inkscape:connector-curvature="0"
       transform="translate(69.285721,294.43362)"
       sodipodi:nodetypes="cccccccccc" />
    <text
       xml:space="preserve"
       style="font-size:10px;font-style:normal;font-variant:normal;font-weight:normal;font-stretch:normal;line-height:125%;letter-spacing:0px;word-spacing:0px;fill:#000000;fill-opacity:1;stroke:none;font-family:Arial;-inkscape-font-specification:Arial"
       x="166.80144"
       y="28.899698"
       id="text7988"
       sodipodi:linespacing="125%"
       transform="translate(69.285721,294.43362)"><tspan
         sodipodi:role="line"
         id="tspan7990"
         x="166.80144"
         y="28.899698">Central meridian</tspan><tspan
         sodipodi:role="line"
         x="166.80144"
         y="41.399696"
         id="tspan11892">(selected by mapmaker)</tspan></text>
    <text
       xml:space="preserve"
       style="font-size:10px;font-style:normal;font-variant:normal;font-weight:normal;font-stretch:normal;line-height:125%;letter-spacing:0px;word-spacing:0px;fill:#000000;fill-opacity:1;stroke:none;font-family:Arial;-inkscape-font-specification:Arial"
       x="169.20055"
       y="40.390182"
       id="text11882"
       sodipodi:linespacing="125%"
       transform="translate(69.285721,294.43362)"><tspan
         sodipodi:role="line"
         id="tspan11884"
         x="169.20055"
         y="40.390182" /></text>
    <text
       xml:space="preserve"
       style="font-size:10px;font-style:normal;font-variant:normal;font-weight:normal;font-stretch:normal;line-height:125%;letter-spacing:0px;word-spacing:0px;fill:#000000;fill-opacity:1;stroke:none;font-family:Arial;-inkscape-font-specification:Arial"
       x="319.58701"
       y="22.459976"
       id="text11886"
       sodipodi:linespacing="125%"
       transform="translate(69.285721,294.43362)"><tspan
         sodipodi:role="line"
         id="tspan11888"
         x="319.58701"
         y="22.459976">The maker of this interrupted Sinusoidal</tspan><tspan
         sodipodi:role="line"
         x="319.58701"
         y="34.959976"
         id="tspan11890">map used three central meridians.</tspan></text>
    <text
       xml:space="preserve"
       style="font-size:10px;font-style:normal;font-variant:normal;font-weight:normal;font-stretch:normal;line-height:125%;letter-spacing:0px;word-spacing:0px;fill:#000000;fill-opacity:1;stroke:none;font-family:Arial;-inkscape-font-specification:Arial"
       x="107.32143"
       y="467.96933"
       id="text11894"
       sodipodi:linespacing="125%"><tspan
         sodipodi:role="line"
         id="tspan11896"
         x="107.32143"
         y="467.96933">Uninterrupted Sinusoidal</tspan><tspan
         sodipodi:role="line"
         x="107.32143"
         y="480.46933"
         id="tspan11898">Areas are equal. Scale true only on</tspan><tspan
         sodipodi:role="line"
         x="107.32143"
         y="492.96933"
         id="tspan11900">central meridians and on all parallels</tspan></text>
    <text
       xml:space="preserve"
       style="font-size:10px;font-style:normal;font-variant:normal;font-weight:normal;font-stretch:normal;line-height:125%;letter-spacing:0px;word-spacing:0px;fill:#000000;fill-opacity:1;stroke:none;font-family:Arial;-inkscape-font-specification:Arial"
       x="57.678574"
       y="162.10715"
       id="text11902"
       sodipodi:linespacing="125%"
       transform="translate(69.285721,294.43362)"><tspan
         sodipodi:role="line"
         id="tspan11904"
         x="57.678574"
         y="162.10715" /></text>
    <text
       xml:space="preserve"
       style="font-size:10px;font-style:normal;font-variant:normal;font-weight:normal;font-stretch:normal;line-height:125%;letter-spacing:0px;word-spacing:0px;fill:#000000;fill-opacity:1;stroke:none;font-family:Arial;-inkscape-font-specification:Arial"
       x="296.42859"
       y="405.29077"
       id="text11906"
       sodipodi:linespacing="125%"><tspan
         sodipodi:role="line"
         id="tspan11908"
         x="296.42859"
         y="405.29077">Equator</tspan></text>
    <path
       style="fill:#000000;stroke:#000000;stroke-width:1px;stroke-linecap:butt;stroke-linejoin:miter;stroke-opacity:1"
       d="m 264.78624,107.56533 0,2.0203 21.84455,0 0,2.27285 8.46002,-3.53554 -8.33376,-3.40926 0,2.52538 z"
       id="path11910"
       inkscape:connector-curvature="0"
       transform="translate(69.285721,294.43362)"
       sodipodi:nodetypes="cccccccc" />
    <path
       style="fill:#000000;stroke:#000000;stroke-width:1px;stroke-linecap:butt;stroke-linejoin:miter;stroke-opacity:1"
       d="m 224.63267,108.0704 -4.67195,0 0,-2.77792 -7.95495,4.41942 7.95495,3.15673 0,-2.77792 4.67195,0 z"
       id="path11912"
       inkscape:connector-curvature="0"
       transform="translate(69.285721,294.43362)"
       sodipodi:nodetypes="cccccccc" />
    <path
       style="fill:#808080"
       d="m 411.43104,462.30113 -2.04024,1.35467 -5.62397,-5.14 -5.62398,-5.14 0,-1.20852 c 0,-0.66469 0.61083,-2.04389 1.3574,-3.06489 l 1.35741,-1.85636 3.64259,-0.12086 3.6426,-0.12086 0,0.82127 0,0.82128 1.75,-0.93657 c 0.9625,-0.51512 2.10357,-0.99702 2.53571,-1.0709 0.43215,-0.0739 1.50267,0.58262 2.37894,1.4589 l 1.59323,1.59322 1.423,-0.54606 1.423,-0.54605 -0.55817,0.90313 -0.55817,0.90314 1.25623,0.44454 1.25623,0.44453 -3.30732,2.92852 -3.30731,2.92852 -0.27848,1.89735 -0.27847,1.89734 -2.04023,1.35466 z m -1.78819,0.27536 c 0.275,0 0.5,-0.225 0.5,-0.5 0,-0.275 -0.225,-0.5 -0.5,-0.5 -0.275,0 -0.5,0.225 -0.5,0.5 0,0.275 0.225,0.5 0.5,0.5 z m 93.80902,-1.03327 -2.19099,0.0333 -0.59104,-0.95633 -0.59104,-0.95632 -1.21798,0.42669 -1.21797,0.42669 -2.36776,-1.97601 -2.36776,-1.97601 1.18487,-1.42769 1.18488,-1.42768 4.58337,-0.97754 4.58338,-0.97754 1.34108,0.51463 1.34108,0.51462 0.61322,-1.59801 0.61321,-1.59801 0.90367,0.5585 0.90368,0.5585 0.92815,-2.31425 c 0.51049,-1.27283 0.95668,-1.92164 0.99154,-1.4418 l 0.0634,0.87245 1.52417,-1.26495 1.52416,-1.26494 0.69688,0.69687 0.69687,0.69688 -1.0239,0.69562 c -0.56315,0.3826 -2.27619,2.36368 -3.80677,4.40241 l -2.78286,3.70679 0.66201,1.07115 0.66201,1.07115 -2.32629,1.9388 -2.32628,1.93879 -2.19098,0.0333 z m 80.64511,0.0333 c -0.58085,0 -2.606,-1.6875 -4.50034,-3.75 -1.89433,-2.0625 -3.43949,-3.975 -3.4337,-4.25 0.006,-0.275 0.36068,-1.05114 0.78863,-1.72475 l 0.7781,-1.22474 2.45659,-0.45095 c 1.35112,-0.24802 3.88695,-0.48438 5.63516,-0.52525 l 3.17857,-0.0743 1.34316,-1.34316 1.34316,-1.34316 1.6901,0.59316 1.69009,0.59316 -4.95672,6.75 -4.95671,6.75 -1.05609,0 z m -67.73551,-21.07895 -1.28139,0.079 -0.51287,-1.33652 -0.51287,-1.33651 4.54426,-8.90467 4.54425,-8.90467 0,-2.6998 0,-2.6998 -1.01515,-0.62739 c -0.55833,-0.34507 -1.68333,-2.22659 -2.5,-4.18114 -0.81667,-1.95461 -1.48485,-4.59728 -1.48485,-5.87266 l 0,-2.31886 1,-0.61803 c 0.55,-0.33992 1,-1.29303 1,-2.11803 l 0,-1.5 -0.88088,0.54441 -0.88087,0.54441 -3.70688,-2.94586 c -2.03879,-1.62022 -4.67989,-3.21882 -5.86913,-3.55244 -1.18923,-0.33362 -3.39974,-1.08101 -4.91224,-1.66086 l -2.75,-1.05427 -0.036,-1.12868 c -0.0198,-0.62077 -1.14255,-2.47868 -2.49504,-4.12868 l -2.45907,-3 -0.005,1.19098 c -0.003,0.65504 0.44507,1.4691 0.99507,1.80902 0.55,0.33992 1,1.06803 1,1.61803 l 0,1 -1.01902,-0.62978 c -0.56045,-0.34639 -2.15702,-2.87554 -3.54792,-5.62035 l -2.52891,-4.99056 0.62916,-1.98229 0.62915,-1.98229 -1.27028,-4.95638 -1.27028,-4.95638 -1.61095,0 c -0.88602,0 -2.15095,0.54 -2.81095,1.2 -0.66,0.66 -1.2,0.90099 -1.2,0.53554 l 0,-0.66447 -4.58291,1.96447 c -2.52059,1.08045 -4.78834,1.96446 -5.03942,1.96446 -0.25109,0 0.12372,-0.62777 0.8329,-1.39504 l 1.28943,-1.39504 0.75,0.45406 0.75,0.45405 0,-1.11803 0,-1.11803 1.06731,0.65963 1.06731,0.65963 0.54932,-2.10061 0.54932,-2.10062 1.13337,-0.0318 1.13337,-0.0318 -1.76109,-1.33655 -1.76109,-1.33655 1.51109,-1.25409 1.51109,-1.2541 0,1.62244 0,1.62245 1.05902,0 1.05901,0 -0.55783,-0.90259 -0.55783,-0.90259 2.90219,-1.0117 2.90218,-1.01171 4.34663,0.33726 4.34663,0.33725 -1.22411,-0.49766 -1.2241,-0.49766 1.58911,-2.4253 1.58912,-2.4253 1.90455,0 1.90454,0 -0.42491,-2.34324 -0.4249,-2.34323 2.21321,0.42308 2.21321,0.42308 6.94214,5.55089 c 3.81818,3.05299 7.23801,6.01375 7.59962,6.57947 l 0.65748,1.02858 -0.58454,1.59069 c -0.32149,0.87487 -1.02655,1.88655 -1.56679,2.24816 l -0.98226,0.65748 -1.34069,-0.51447 c -0.73737,-0.28296 -1.34068,-0.97142 -1.34068,-1.52992 l 0,-1.01546 1.5,1.24489 1.5,1.24489 0,-1.15383 0,-1.15383 -1.75,-0.65481 c -0.9625,-0.36015 -3.325,-2.3056 -5.25,-4.32322 l -3.5,-3.6684 -2.81371,-1.15299 -2.8137,-1.15299 0.61564,0.99614 0.61565,0.99613 -1.55194,-0.59553 -1.55194,-0.59554 0,1.16601 0,1.166 -1,-0.61803 -1,-0.61803 0,1.05901 c 0,0.58246 0.3375,1.02739 0.75,0.98873 0.4125,-0.0387 1.65,-0.42906 2.75,-0.86756 l 2,-0.79727 2.5,1.78116 c 1.375,0.97964 3.54225,2.76529 4.81612,3.96811 1.27386,1.20283 2.10114,2.40192 1.8384,2.66466 -0.26274,0.26274 -1.75499,-0.19153 -3.31611,-1.00948 l -2.83841,-1.4872 0.5,-0.75773 0.5,-0.75773 -1.34711,-0.44904 -1.3471,-0.44903 1.0971,2.04996 c 0.60341,1.12747 1.09711,2.30454 1.09711,2.6157 0,0.31116 -0.675,0.56574 -1.5,0.56574 l -1.5,0 0.0124,1.25 0.0124,1.25 3.39121,2.19599 3.39121,2.196 -0.32708,-1.696 c -0.17993,-0.93279 -0.36155,-2.03349 -0.40363,-2.44599 -0.0421,-0.4125 -0.86401,-0.78163 -1.82651,-0.82029 l -1.75,-0.0703 1.99092,-0.77731 1.99093,-0.77731 3.50907,1.93617 c 1.93,1.06489 4.18408,2.58758 5.00908,3.38376 l 1.5,1.44759 -1.5,0.94853 -1.5,0.94852 1.30902,0.0153 1.30901,0.0153 -0.61803,1 -0.61803,1 1.166,0 1.16601,0 -0.57561,-1.5 -0.5756,-1.5 1.4096,0 c 0.77528,0 1.70622,0.47994 2.06875,1.06653 l 0.65916,1.06654 -1.85014,1.40531 -1.85014,1.40531 -1.30194,-0.46039 -1.30194,-0.46039 0.5462,0.88376 0.54619,0.88376 -1.49425,0.5734 -1.49426,0.5734 0,1.83139 c 0,1.00726 -0.48695,2.31833 -1.0821,2.91348 l -1.0821,1.0821 1.0091,1.8679 c 0.55501,1.02735 1.22863,2.59233 1.49693,3.47774 l 0.48783,1.60984 4.83517,1.35099 4.83517,1.351 -3.6978,0.34642 -3.69781,0.34642 -2.38202,-1.56076 -2.38202,-1.56077 -0.73098,0.73099 -0.73098,0.73098 0.49458,-2.72748 0.49459,-2.72747 -0.9928,0 -0.99279,0 0.67969,-1.09977 0.67969,-1.09977 -1.87067,0.91295 c -1.02888,0.50213 -2.90719,0.83231 -4.17405,0.73375 l -2.30336,-0.17921 0.30336,3.02658 0.30337,3.02658 1.81186,0.26004 1.81185,0.26004 0.54293,-1.41485 0.54293,-1.41485 0.93589,0.57841 0.93589,0.57841 -0.60806,1.91585 -0.60807,1.91584 1.95898,0 1.95898,0 0.62746,2.5 0.62746,2.5 1.42194,0 c 0.78206,0 1.72038,-0.48292 2.08517,-1.07315 l 0.66324,-1.07315 4.84927,0.45522 4.84927,0.45522 1.61793,1.61793 c 0.88987,0.88986 2.06582,1.61793 2.61323,1.61793 0.54741,0 2.46742,1.12285 4.26669,2.49521 l 3.2714,2.49522 0.66188,-0.66188 0.66188,-0.66188 0,1.16666 0,1.16667 1.37756,0 c 0.75765,0 1.92459,0.65914 2.59319,1.46475 l 1.21563,1.46476 -2.16128,3.03524 c -1.18871,1.66939 -1.90565,3.03525 -1.59319,3.03525 0.31245,0 -0.22558,0.7875 -1.19562,1.75 -0.97005,0.9625 -3.02042,2.31441 -4.55639,3.00425 l -2.79268,1.25426 0.71672,1.24574 0.71671,1.24575 -0.81802,-0.74103 -0.81802,-0.74103 -3.28461,3.38206 -3.28461,3.38206 -0.5577,-0.5577 -0.55769,-0.55769 0,1.08721 0,1.08721 -2.9309,0.64373 -2.9309,0.64374 -1.15519,1.39191 -1.15519,1.39192 0.7406,1.19831 0.7406,1.19832 -0.90451,-0.45306 -0.90451,-0.45305 -2.63916,2.75216 -2.63916,2.75216 1.13916,0.46744 1.13916,0.46744 -1.28138,0.0789 z m 4.28138,-81.92105 c 0.275,0 0.5,-0.225 0.5,-0.5 0,-0.275 -0.225,-0.5 -0.5,-0.5 -0.275,0 -0.5,0.225 -0.5,0.5 0,0.275 0.225,0.5 0.5,0.5 z m -17.83564,-3.75623 0.50646,-1.25623 0.91459,0.56525 0.91459,0.56524 0,-1.05901 0,-1.05902 -1.5,0 -1.5,0 0.0789,1.75 0.0789,1.75 0.50647,-1.25623 z m 3.00231,-7.5771 0.66666,-0.66667 -0.66666,-0.66667 -0.66667,-0.66666 0,1.33333 0,1.33333 0.66667,-0.66666 z m -74.67001,87.33333 -0.93389,0 0.5734,-1.49426 0.5734,-1.49425 0.86697,0.53581 0.86697,0.53582 2.52824,-1.65657 2.52825,-1.65657 0,-1.50744 0,-1.50743 1.50117,1.24586 1.50117,1.24586 -4.5359,2.87659 c -2.49474,1.58212 -4.95615,2.87658 -5.46978,2.87658 z m -9.05568,-2 c -0.51754,0 -0.94098,-0.45 -0.94098,-1 l 0,-1 1.55902,0 1.55901,0 -0.61803,1 c -0.33992,0.55 -1.04148,1 -1.55902,1 z m 4.5345,-5.9434 -1.97548,2.44536 -2.5,-0.33864 -2.5,-0.33864 -2.19062,-2.03087 -2.19061,-2.03086 -3.20861,1.11852 c -1.76473,0.61519 -3.76638,1.11853 -4.44809,1.11853 l -1.23949,0 -0.6648,-3.54371 -0.66481,-3.54372 0.62551,-1.9708 0.62551,-1.97081 0.85925,0.53104 0.85925,0.53105 3.52588,-2.39273 3.52588,-2.39273 -0.62379,-0.6238 -0.62379,-0.62379 3.2105,0 3.2105,0 -0.29383,1.71375 -0.29384,1.71375 1.67279,0.3447 1.67279,0.34471 0.40127,-2.30846 0.40127,-2.30845 0.83117,2 c 0.45715,1.1 1.30263,2.60613 1.87885,3.34695 l 1.04767,1.34695 0.67017,-1.84695 0.67016,-1.84695 -0.14759,5.55562 -0.14759,5.55562 -1.97548,2.44536 z m 160.02452,0.61007 -1.5,0 0,-1.63334 c 0,-0.89833 -0.53297,-2.1663 -1.18439,-2.81772 -0.65141,-0.65141 -1.3686,-2.20391 -1.59376,-3.45 -0.22516,-1.24608 -0.3813,-4.27863 -0.34697,-6.73898 l 0.0624,-4.47338 -1.6827,-2.52662 -1.68269,-2.52663 0.29542,-1.85931 0.29542,-1.85931 -0.99596,0.61554 -0.99597,0.61554 -0.41301,-1.23903 -0.41301,-1.23902 -5.11042,1.04685 -5.11042,1.04686 0.18802,-1.06406 0.18804,-1.06406 -1.5,0.33333 -1.5,0.33334 0.75218,-0.75218 0.75218,-0.75219 -1.47243,-1.62702 -1.47244,-1.62703 0.57987,-3.57333 0.57988,-3.57334 3.8788,-4.37209 c 2.13335,-2.40465 3.8307,-4.82601 3.7719,-5.38079 -0.0588,-0.55479 -0.0536,-1.7962 0.0116,-2.7587 l 0.11846,-1.75 2.08333,0 2.08334,0 -0.42111,-1.25 -0.4211,-1.25 1.58777,-1.32416 1.58777,-1.32415 -1.1809,0.59046 -1.1809,0.59047 -0.6382,-1.03262 -0.6382,-1.03262 -1.06063,0.6555 -1.06063,0.65551 0.48736,-1.38919 0.48736,-1.3892 1.5141,0.11751 1.51411,0.11751 -0.47372,-1.81148 -0.47371,-1.81148 3.50562,-1.46474 3.50562,-1.46474 0.6822,-2.14943 0.6822,-2.14943 2.66416,0.30814 2.66416,0.30814 0.125,1.25 c 0.0687,0.6875 0.19493,1.5875 0.28041,2 0.0855,0.4125 0.61759,-0.0438 1.18249,-1.01394 l 1.02708,-1.76394 -1.55749,-1.55749 c -0.85662,-0.85662 -1.55749,-1.97534 -1.55749,-2.48606 l 0,-0.92857 1.09362,0 1.09362,0 0.52301,2 0.52301,2 1.35769,0 1.35769,0 1.61306,3.1193 c 0.88718,1.71562 3.09715,5.20312 4.91104,7.75 1.8139,2.54689 4.95918,7.95067 6.98951,12.0084 l 3.69152,7.37771 -2.48399,-0.62344 c -1.36619,-0.34289 -3.31328,-0.93461 -4.32688,-1.31494 l -1.8429,-0.69149 1.37244,1.68723 1.37245,1.68723 2.37755,0 2.37756,0 0,1.97432 0,1.97432 -3,1.55136 -3,1.55136 0,0.97432 0,0.97432 1.52568,0 1.52568,0 -1.67459,3.25 c -0.92103,1.7875 -2.50759,3.83802 -3.52568,4.5567 l -1.85109,1.30671 0,5.44329 0,5.4433 -1.45308,0 -1.45309,0 -1.74481,3.75 c -0.95965,2.0625 -2.02608,3.975 -2.36986,4.25 -0.34377,0.275 -0.91268,1.27991 -1.26425,2.23314 l -0.6392,1.73314 -1.53786,-0.59013 -1.53785,-0.59013 0,0.94032 0,0.94033 -1.5,0 z m 15.38158,-33.21491 0.5605,-0.56051 -1.47104,-0.93031 -1.47104,-0.93031 0.87244,-0.0153 0.87245,-0.0153 -1.24489,-1.5 c -0.68469,-0.825 -1.75229,-1.49311 -2.37244,-1.48469 l -1.12756,0.0153 1.5,0.96937 1.5,0.96937 -0.90499,0.0153 -0.90499,0.0153 1.81553,2.00613 1.81552,2.00614 0.56051,-0.56051 z m -2.38158,-2.45176 c -0.275,0 -0.5,-0.225 -0.5,-0.5 0,-0.275 0.225,-0.5 0.5,-0.5 0.275,0 0.5,0.225 0.5,0.5 0,0.275 -0.225,0.5 -0.5,0.5 z m -2.46482,-4 1.03519,0 -1.04056,-1.94431 c -0.57231,-1.06936 -1.48815,-2.22092 -2.03519,-2.55901 l -0.99462,-0.61471 0,1.05901 0,1.05902 1,0 1,0 0,1.5 0,1.5 1.03518,0 z m -11.03518,-6.95548 1.5,-0.70627 3.5,0.30386 3.5,0.30386 -1.94113,-1.47299 c -1.06762,-0.81014 -2.30512,-1.47298 -2.75,-1.47298 l -0.80887,0 0,-1.5 0,-1.5 -1.05902,0 -1.05901,0 0.61803,1 0.61803,1 -0.944,0 c -0.51921,0 -1.72003,-1.18435 -2.66849,-2.63189 l -1.72448,-2.63189 -0.72048,1.16576 -0.72048,1.16576 -1.69128,-0.649 -1.69128,-0.64901 -2.72877,2.78551 -2.72877,2.78551 1.83179,-0.67037 c 1.00748,-0.36871 2.01998,-0.67038 2.25,-0.67038 0.23001,0 0.41821,-0.675 0.41821,-1.5 l 0,-1.5 0.94098,0 c 0.51754,0 1.19535,0.41156 1.50623,0.91459 l 0.56525,0.91459 -1.25623,0.50646 -1.25623,0.50646 1.25,0.0789 1.25,0.079 0,1.34719 0,1.34718 2.25,1.02821 2.25,1.02821 1.5,-0.70627 z m -3.8455,-3.26269 -1.34551,0.44851 0.3592,-1.86517 0.3592,-1.86517 0.98631,0.25 c 0.54246,0.1375 0.9863,0.775 0.9863,1.41667 l 0,1.16666 -1.3455,0.4485 z m 0.3455,-1.78183 c 0.275,0 0.5,-0.225 0.5,-0.5 0,-0.275 -0.225,-0.5 -0.5,-0.5 -0.275,0 -0.5,0.225 -0.5,0.5 0,0.275 0.225,0.5 0.5,0.5 z m 19.19098,1.98469 c 0.65504,0.008 1.43759,-0.3837 1.73899,-0.87138 l 0.54801,-0.8867 -1.48899,-1.23575 c -0.81894,-0.67966 -1.48899,-1.78065 -1.48899,-2.44664 l 0,-1.21089 -1.40262,0 -1.40263,0 1.06314,2.33334 1.06314,2.33333 1.58949,0.0153 1.58948,0.0153 -1.5,0.96937 -1.5,0.96937 1.19098,0.0153 z m -6.69098,-3.48469 c 0.55,-0.33992 1,-0.84303 1,-1.11803 0,-0.275 -0.45,-0.22189 -1,0.11803 -0.55,0.33992 -1,0.84303 -1,1.11803 0,0.275 0.45,0.22189 1,-0.11803 z m -3.25,-0.69037 1.75,-0.33702 0,-0.97261 0,-0.97261 -1.75,-0.33702 -1.75,-0.33702 0,1.64665 0,1.64665 1.75,-0.33702 z m 0.75,-0.80963 c -0.275,0 -0.5,-0.225 -0.5,-0.5 0,-0.275 0.225,-0.5 0.5,-0.5 0.275,0 0.5,0.225 0.5,0.5 0,0.275 -0.225,0.5 -0.5,0.5 z m -14.33415,-6.22195 1.33415,-0.44472 0,-1.66666 0,-1.66667 -1,-0.25 -1,-0.25 -0.33415,2.36138 -0.33414,2.36138 1.33414,-0.44471 z m 4.36178,-1.77805 c 0.22528,0 0.14313,-0.69441 -0.18255,-1.54313 -0.32569,-0.84872 -0.80663,-1.32866 -1.06875,-1.06653 -0.26213,0.26213 -0.17998,0.95654 0.18255,1.54313 0.36254,0.58659 0.84347,1.06653 1.06875,1.06653 z m 1.93719,0 c 0.25565,0 0.94106,-0.88987 1.52314,-1.97749 l 1.05832,-1.9775 -1.52314,0.58448 -1.52314,0.58449 0,1.39301 c 0,0.76616 0.20917,1.39301 0.46482,1.39301 z m 0.20185,-4.33333 0.66666,-0.66667 -0.66666,-0.66667 -0.66667,-0.66666 0,1.33333 0,1.33333 0.66667,-0.66666 z m 17.14812,59.33333 -0.81479,0 0,-2.75945 0,-2.75946 2.09738,-1.30983 c 1.15356,-0.72041 2.29784,-1.10937 2.54286,-0.86435 0.24501,0.24501 -0.33215,2.07619 -1.28259,4.06928 -0.95044,1.9931 -2.09473,3.62381 -2.54286,3.62381 z m -181.31479,-6 c -0.275,0 -0.5,-0.225 -0.5,-0.5 0,-0.275 0.225,-0.5 0.5,-0.5 0.275,0 0.5,0.225 0.5,0.5 0,0.275 -0.225,0.5 -0.5,0.5 z m 7.56556,-2.66557 -1,1 -0.63977,-1.66721 -0.63977,-1.66722 -2.95203,0 -2.95202,0 0.62326,-1.00846 0.62326,-1.00846 -2.31424,-0.92815 -2.31425,-0.92816 1.5,-0.1774 c 0.825,-0.0976 2.74789,-0.32494 4.27309,-0.50525 l 2.77308,-0.32784 -0.53761,0.86986 -0.5376,0.86987 1.92214,0.61006 1.92214,0.61006 0.62516,1.62915 0.62516,1.62915 -1,1 z m -18.23377,-0.96896 c -0.73249,0.20101 -3.33649,-0.16972 -5.78668,-0.82384 l -4.4549,-1.18932 -2.92081,-2.67616 c -1.60644,-1.47188 -3.31424,-2.67615 -3.7951,-2.67615 l -0.8743,0 0,-1.5 c 0,-0.825 0.30207,-1.5 0.67126,-1.5 0.36919,0 1.58903,0.7875 2.71075,1.75 l 2.03949,1.75 -1.71075,-2.71482 c -0.94091,-1.49315 -1.71075,-3.24133 -1.71075,-3.88485 l 0,-1.17005 2,2.54259 2,2.54259 0,1.59227 0,1.59227 0.96861,0 0.96862,0 -0.52464,1.36718 -0.52463,1.36718 4.49884,1.13282 c 2.47436,0.62305 4.7799,1.13282 5.12341,1.13282 l 0.62456,0 -0.59006,-1.85912 -0.59006,-1.85912 0.62966,-1.64088 0.62967,-1.64088 1.45203,0 1.45202,0 -0.61571,0.99624 c -0.33864,0.54793 -0.78936,1.89793 -1.0016,3 l -0.38589,2.00376 1.44259,0 1.44258,0 0,1 c 0,0.55 -0.4132,1 -0.91821,1 -0.50502,0 -1.51752,0.16446 -2.25,0.36547 z m -4.52776,-5.65135 -2.01562,1.33832 -1.26196,-1.52057 -1.26197,-1.52058 2.36776,-1.97237 c 1.30227,-1.08481 2.92744,-1.98735 3.61148,-2.00565 l 1.24373,-0.0333 -0.3339,2.1879 -0.33389,2.1879 -2.01563,1.33832 z m 8.13695,1.28588 -2.55901,0 0.56001,-0.90612 0.56001,-0.90612 1.99901,0.52275 c 1.09945,0.28751 1.999,0.69527 1.999,0.90612 0,0.21085 -1.15156,0.38337 -2.55902,0.38337 z m -53.44098,-2.5 c -0.55,0.33992 -1,0.39303 -1,0.11803 0,-0.275 0.45,-0.77811 1,-1.11803 0.55,-0.33992 1,-0.39303 1,-0.11803 0,0.275 -0.45,0.77811 -1,1.11803 z m 2.5,0.5 c -0.275,0 -0.5,-0.225 -0.5,-0.5 0,-0.275 0.225,-0.5 0.5,-0.5 0.275,0 0.5,0.225 0.5,0.5 0,0.275 -0.225,0.5 -0.5,0.5 z m 51.5,0 c -0.55,0 -1,-0.45 -1,-1 0,-0.55 0.45,-1 1,-1 0.55,0 1,0.45 1,1 0,0.55 -0.45,1 -1,1 z m 3.58333,-0.079 -1.91666,0.079 0.60416,-0.60417 0.60417,-0.60416 1.3125,0.52522 1.3125,0.52521 -1.91667,0.079 z m -27.08333,-1.92105 c -0.275,0 -0.5,-0.225 -0.5,-0.5 0,-0.275 0.225,-0.5 0.5,-0.5 0.275,0 0.5,0.225 0.5,0.5 0,0.275 -0.225,0.5 -0.5,0.5 z m 21,-1 c -0.275,0 -0.5,-0.225 -0.5,-0.5 0,-0.275 0.225,-0.5 0.5,-0.5 0.275,0 0.5,0.225 0.5,0.5 0,0.275 -0.225,0.5 -0.5,0.5 z m -30.18004,-2.25085 -2.15483,-0.16232 -0.66307,-4.42164 -0.66306,-4.42163 -1.86352,-2.00025 -1.86352,-2.00025 -1.58663,0.60885 -1.58664,0.60885 2.68568,-4.73038 c 1.47713,-2.60171 5.14142,-7.99658 8.14287,-11.9886 l 5.45718,-7.25822 4.76698,-4.24178 4.76697,-4.24178 4.72416,-1.8918 4.72416,-1.8918 0.67744,1.09612 0.67744,1.09613 7.46922,1.19143 7.46921,1.19144 1.75,1.50923 1.75,1.50922 0,1.84502 0,1.84501 -0.82681,0 -0.8268,0 0.4403,3 0.44031,3 -1.1385,0 -1.1385,0 -0.5859,-2.9295 -0.5859,-2.9295 -2.1391,0.10642 c -1.1765,0.0585 -2.7016,0.53191 -3.3891,1.05194 -0.6875,0.52004 -1.25,1.28795 -1.25,1.70645 0,0.41851 0.9,0.99628 2,1.28394 l 2,0.52301 0,1.59362 0,1.59362 -1,0 -1,0 0,1.25945 0,1.25946 -2,1.24902 c -1.1,0.68696 -1.99311,1.58271 -1.98469,1.99054 0.008,0.40784 0.46666,1.41653 1.0183,2.24153 l 1.00298,1.5 1.04317,-1.77103 1.04316,-1.77103 1.10848,0.68507 1.10848,0.68508 -0.63856,-1.66405 -0.63855,-1.66404 0.93723,0 0.93723,0 -0.55423,-1.4443 -0.55423,-1.4443 2.05042,0.15445 2.05041,0.15446 -1.4648,1.61858 -1.4648,1.61859 0,1.94902 0,1.94902 -2.01143,1.72224 c -1.10629,0.94723 -2.45629,1.72224 -3,1.72224 l -0.98857,0 0,-1.07143 c 0,-0.58928 -0.64286,-1.71428 -1.42857,-2.5 -0.78572,-0.78571 -1.84954,-1.42857 -2.36406,-1.42857 l -0.93549,0 0.11406,3.70238 0.11406,3.70238 -3.21148,2.04762 -3.21148,2.04762 -0.0385,1.25 -0.0385,1.25 -1.62244,0 -1.62245,0 1.28654,1.55019 1.28654,1.55019 -1.50215,1.50215 -1.50216,1.50216 -2.66194,-1.21286 c -1.46407,-0.66707 -2.66194,-1.59063 -2.66194,-2.05234 l 0,-0.83949 -1.55902,0 -1.55901,0 0.62277,-1.00767 0.62278,-1.00767 -1.49233,-1.49233 c -0.82078,-0.82078 -1.74605,-1.49233 -2.05616,-1.49233 -0.3101,0 -1.74026,1.0125 -3.17813,2.25 l -2.61431,2.25 -0.93205,2.41703 -0.93205,2.41703 1.27615,0.78871 1.27614,0.7887 -2.15482,-0.16232 z m 18.56201,-8.74915 c 0.55,0 1.27811,-0.45 1.61803,-1 l 0.61803,-1 -1,0 c -0.55,0 -1.27811,0.45 -1.61803,1 l -0.61803,1 1,0 z m 20.61803,-17 c 0.275,0 0.5,-0.225 0.5,-0.5 0,-0.275 -0.225,-0.5 -0.5,-0.5 -0.275,0 -0.5,0.225 -0.5,0.5 0,0.275 0.225,0.5 0.5,0.5 z m -9,26 -1.5,0 0,-1.5 0,-1.5 1.5,0 1.5,0 0,1.5 0,1.5 -1.5,0 z m -1.43494,-4.03482 -1.94368,1.04023 -0.52866,-0.85538 -0.52865,-0.85539 1.21796,-1.5867 1.21797,-1.5867 1.25437,1.40186 1.25438,1.40185 -1.94369,1.04023 z m -1.06506,-0.46518 c 0.55,-0.33992 1,-0.84303 1,-1.11803 0,-0.275 -0.45,-0.22189 -1,0.11803 -0.55,0.33992 -1,0.84303 -1,1.11803 0,0.275 0.45,0.22189 1,-0.11803 z m -34.5,-6.5 c -0.275,0 -0.5,-0.225 -0.5,-0.5 0,-0.275 0.225,-0.5 0.5,-0.5 0.275,0 0.5,0.225 0.5,0.5 0,0.275 -0.225,0.5 -0.5,0.5 z m 37,-4 c -0.275,0 -0.5,-0.225 -0.5,-0.5 0,-0.275 0.225,-0.5 0.5,-0.5 0.275,0 0.5,0.225 0.5,0.5 0,0.275 -0.225,0.5 -0.5,0.5 z m 105,-3 c -0.275,0 -0.5,-0.225 -0.5,-0.5 0,-0.275 0.225,-0.5 0.5,-0.5 0.275,0 0.5,0.225 0.5,0.5 0,0.275 -0.225,0.5 -0.5,0.5 z m -10,-19 c -0.275,0 -0.5,-0.225 -0.5,-0.5 0,-0.275 0.225,-0.5 0.5,-0.5 0.275,0 0.5,0.225 0.5,0.5 0,0.275 -0.225,0.5 -0.5,0.5 z m 3,-2 c -0.275,0 -0.5,-0.225 -0.5,-0.5 0,-0.275 0.225,-0.5 0.5,-0.5 0.275,0 0.5,0.225 0.5,0.5 0,0.275 -0.225,0.5 -0.5,0.5 z m 63.6875,-0.22917 -1.1875,0.39584 0,-1.58334 0,-1.58333 1.58333,0 1.58334,0 -0.39584,1.1875 c -0.21771,0.65312 -0.93021,1.36563 -1.58333,1.58333 z m 11.68604,-8.36461 c -0.20545,0.17598 -0.93604,0.11908 -1.62354,-0.12646 l -1.25,-0.44643 0,-1.41666 0,-1.41667 1.03138,0 1.03139,0 0.59215,1.54313 c 0.32569,0.84872 0.42406,1.68711 0.21862,1.86309 z"
       id="path11985"
       inkscape:connector-curvature="0" />
    <path
       style="fill:none;stroke:#000000;stroke-width:1px;stroke-linecap:butt;stroke-linejoin:miter;stroke-opacity:1"
       d="M 341.07143,47.285714 C 422.94153,112.37688 350.87333,157.89438 340,169.07143 285.21358,126.60921 282.57316,94.301861 341.07143,47.285714 z"
       id="path11987"
       inkscape:connector-curvature="0"
       transform="translate(69.285721,294.43362)"
       sodipodi:nodetypes="ccc" />
    <path
       style="fill:none;stroke:#000000;stroke-width:1px;stroke-linecap:butt;stroke-linejoin:miter;stroke-opacity:1"
       d="M 341.07143,48 C 367.957,89.962156 365.4776,130.32259 340,169.42857 313.21674,128.47623 313.56897,87.999956 341.07143,48 z"
       id="path11989"
       inkscape:connector-curvature="0"
       transform="translate(69.285721,294.43362)"
       sodipodi:nodetypes="ccc" />
    <path
       style="fill:none;stroke:#000000;stroke-width:1px;stroke-linecap:butt;stroke-linejoin:miter;stroke-opacity:1"
       d="M 340.71429,47.642857 340,169.07143"
       id="path11991"
       inkscape:connector-curvature="0"
       transform="translate(69.285721,294.43362)" />
    <path
       style="fill:none;stroke:#000000;stroke-width:1px;stroke-linecap:butt;stroke-linejoin:miter;stroke-opacity:1"
       d="M 374.64286,87.642857 302.85714,88"
       id="path11993"
       inkscape:connector-curvature="0"
       transform="translate(69.285721,294.43362)" />
    <path
       style="fill:none;stroke:#000000;stroke-width:1px;stroke-linecap:butt;stroke-linejoin:miter;stroke-opacity:1"
       d="M 298.57143,107.28571 545,106.21429"
       id="path11995"
       inkscape:connector-curvature="0"
       transform="translate(69.285721,294.43362)" />
    <path
       style="fill:none;stroke:#000000;stroke-width:1px;stroke-linecap:butt;stroke-linejoin:miter;stroke-opacity:1"
       d="m 303.57143,129.07143 71.07143,-0.71429"
       id="path11997"
       inkscape:connector-curvature="0"
       transform="translate(69.285721,294.43362)" />
    <path
       style="fill:none;stroke:#000000;stroke-width:1px;stroke-linecap:butt;stroke-linejoin:miter;stroke-opacity:1"
       d="m 318.21429,148.71429 42.5,-0.35715"
       id="path11999"
       inkscape:connector-curvature="0"
       transform="translate(69.285721,294.43362)" />
    <path
       style="fill:none;stroke:#000000;stroke-width:1px;stroke-linecap:butt;stroke-linejoin:miter;stroke-opacity:1"
       d="M 432.5,46.928571 C 506.55036,89.62593 492.89498,129.81741 433.92857,168.71429 368.77401,131.28512 361.53378,91.020992 432.5,46.928571 z"
       id="path12001"
       inkscape:connector-curvature="0"
       transform="translate(69.285721,294.43362)"
       sodipodi:nodetypes="ccc" />
    <path
       style="fill:none;stroke:#000000;stroke-width:1px;stroke-linecap:butt;stroke-linejoin:miter;stroke-opacity:1"
       d="m 432.14286,46.928571 c 43.30222,40.59524 38.40476,81.190479 1.78571,121.785719 -37.90133,-39.29386 -45.65762,-79.6393 -1.78571,-121.785719 z"
       id="path12003"
       inkscape:connector-curvature="0"
       transform="translate(69.285721,294.43362)"
       sodipodi:nodetypes="ccc" />
    <path
       style="fill:none;stroke:#000000;stroke-width:1px;stroke-linecap:butt;stroke-linejoin:miter;stroke-opacity:1"
       d="M 432.5,46.928571 C 418.22346,88.54124 420.61376,129.00447 433.92857,168.71429 446.56576,128.57124 447.46759,88.023514 432.5,46.928571 z"
       id="path12005"
       inkscape:connector-curvature="0"
       transform="translate(69.285721,294.43362)"
       sodipodi:nodetypes="ccc" />
    <path
       style="fill:none;stroke:#000000;stroke-width:1px;stroke-linecap:butt;stroke-linejoin:miter;stroke-opacity:1"
       d="m 406.07143,65.857143 53.57143,0.357142"
       id="path12007"
       inkscape:connector-curvature="0"
       transform="translate(69.285721,294.43362)" />
    <path
       style="fill:none;stroke:#000000;stroke-width:1px;stroke-linecap:butt;stroke-linejoin:miter;stroke-opacity:1"
       d="m 388.57143,86.928571 88.21429,-0.357143"
       id="path12009"
       inkscape:connector-curvature="0"
       transform="translate(69.285721,294.43362)" />
    <path
       style="fill:none;stroke:#000000;stroke-width:1px;stroke-linecap:butt;stroke-linejoin:miter;stroke-opacity:1"
       d="M 387.85714,129.07143 477.14286,128"
       id="path12011"
       inkscape:connector-curvature="0"
       transform="translate(69.285721,294.43362)" />
    <path
       style="fill:none;stroke:#000000;stroke-width:1px;stroke-linecap:butt;stroke-linejoin:miter;stroke-opacity:1"
       d="m 405.35714,149.42857 53.9719,-0.71428"
       id="path12013"
       inkscape:connector-curvature="0"
       transform="translate(69.285721,294.43362)"
       sodipodi:nodetypes="cc" />
    <path
       style="fill:none;stroke:#000000;stroke-width:1px;stroke-linecap:butt;stroke-linejoin:miter;stroke-opacity:1"
       d="M 514.28572,46.214285 C 474.15565,84.785196 474.53483,125.26243 515.35714,167.64286 553.7124,127.63308 559.78946,102.8354 514.28572,46.214285 z"
       id="path12015"
       inkscape:connector-curvature="0"
       transform="translate(69.285721,294.43362)"
       sodipodi:nodetypes="ccc" />
    <path
       style="fill:none;stroke:#000000;stroke-width:1px;stroke-linecap:butt;stroke-linejoin:miter;stroke-opacity:1"
       d="M 514.28572,46.214285 C 499.92613,86.318966 501.15073,126.94312 515.35714,168 526.76003,130.11861 527.63208,89.807035 514.28572,46.214285 z"
       id="path12017"
       inkscape:connector-curvature="0"
       transform="translate(69.285721,294.43362)"
       sodipodi:nodetypes="ccc" />
    <path
       style="fill:none;stroke:#000000;stroke-width:1px;stroke-linecap:butt;stroke-linejoin:miter;stroke-opacity:1"
       d="M 497.14286,66.214285 530,66.928571"
       id="path12019"
       inkscape:connector-curvature="0"
       transform="translate(69.285721,294.43362)"
       sodipodi:nodetypes="cc" />
    <path
       style="fill:none;stroke:#000000;stroke-width:1px;stroke-linecap:butt;stroke-linejoin:miter;stroke-opacity:1"
       d="m 487.5,86.571428 53.57143,0"
       id="path12021"
       inkscape:connector-curvature="0"
       transform="translate(69.285721,294.43362)" />
    <path
       style="fill:none;stroke:#000000;stroke-width:1px;stroke-linecap:butt;stroke-linejoin:miter;stroke-opacity:1"
       d="m 488.57143,127.28571 52.14286,0"
       id="path12023"
       inkscape:connector-curvature="0"
       transform="translate(69.285721,294.43362)" />
    <path
       style="fill:none;stroke:#000000;stroke-width:1px;stroke-linecap:butt;stroke-linejoin:miter;stroke-opacity:1"
       d="m 500,148.35714 30,0"
       id="path12025"
       inkscape:connector-curvature="0"
       transform="translate(69.285721,294.43362)" />
  </g>
</svg>
